# xmcd CD database file
#
# Track frame offsets:
#	182
#	20252
#	59435
#	81922
#	110937
#	121020
#	169080
#	199117
#	243100
#
# Disc length: 3479 seconds
#
# Revision: 0
# Processed by: cddbd v1.5PL3 Copyright (c) Steve Scherf et al.
# Submitted via: CDex 1.51
#
DISCID=710d9509
DTITLE=Kenny Werner - Copenhagen Calypso
DYEAR=2000
DGENRE=Jazz
TTITLE0=If I Should Lose You
TTITLE1=Ballad For Trane
TTITLE2=My Romance
TTITLE3=Copenhagen Calypso
TTITLE4=What Is This Thing Called Love
TTITLE5=Naima
TTITLE6=Watch What Happens
TTITLE7=Round About Midnight
TTITLE8=Yesterdays
EXTD=YEAR: 2000
EXTT0=
EXTT1=
EXTT2=
EXTT3=
EXTT4=
EXTT5=
EXTT6=
EXTT7=
EXTT8=
PLAYORDER=
